<svg width="19" height="18" viewBox="0 0 19 18" fill="none" xmlns="http://www.w3.org/2000/svg">
      <path d="M16.5292 9.96818L16.5373 9.97645H16.0724H15.4224V10.6265V17.123C15.4224 17.256 15.3119 17.3502 15.2121 17.3502H12.4857V13.672C12.4857 12.8344 12.1555 12.0849 11.618 11.5368C11.0795 10.9877 10.3302 10.6468 9.50638 10.6468C7.84504 10.6468 6.52704 12.0091 6.52704 13.672V17.3502H3.8007C3.69271 17.3502 3.59039 17.2643 3.59039 17.123V10.6265V9.97645H2.94039H0.919455C0.805652 9.97645 0.718634 9.915 0.673835 9.80431C0.628322 9.69186 0.646354 9.57394 0.734235 9.48433L0.73445 9.48411L9.31305 0.728468C9.41533 0.624169 9.5812 0.624169 9.68349 0.728468L18.2623 9.47605C18.3502 9.56566 18.3682 9.68359 18.3227 9.79604C18.2779 9.90673 18.1909 9.96818 18.0771 9.96818H16.5292Z" stroke="#FFFFFF" stroke-width="1.3"></path>
    </svg>