<svg width="18" height="16" viewBox="0 0 18 16" fill="none" xmlns="http://www.w3.org/2000/svg">
      <path d="M10.0071 15.1101H8.0009C6.94584 15.1101 5.90675 14.9196 4.93961 14.5384C3.97247 14.1572 3.08525 13.6093 2.34191 12.9106C1.59857 12.2118 1.00711 11.3859 0.607468 10.4807C0.207823 9.56751 0 8.59081 0 7.60616V0.110107H10.0071C11.8535 0.110107 13.6439 0.705666 15.0666 1.80149C16.4973 2.89731 17.4805 4.42192 17.8402 6.1133C18.2078 7.81261 17.9361 9.56749 17.0808 11.1C16.2176 12.6326 14.8188 13.8317 13.1244 14.5067C12.1412 14.8957 11.0781 15.1022 10.0071 15.0943M1.8064 1.78559V7.59026C1.8064 9.13076 2.46181 10.6077 3.62078 11.6956C4.77975 12.7835 6.35435 13.3949 7.9929 13.3949H9.99912C11.6377 13.3949 13.2123 12.7835 14.3792 11.6956C15.5382 10.6077 16.1936 9.13076 16.1936 7.59026C16.1936 6.04976 15.5382 4.5728 14.3792 3.48492C13.2202 2.39704 11.6457 1.78559 9.99912 1.78559H1.7984H1.8064Z" fill="#362FC1"></path>
      <path d="M1.06299 5.59707C1.85429 5.81942 2.69355 5.86705 3.51681 5.74C4.33209 5.61295 5.1154 5.31917 5.7948 4.87449C6.47419 4.42981 7.03369 3.84218 7.44133 3.16721C7.84897 2.49225 8.08077 1.72997 8.12873 0.959717H1.07099V5.59707H1.06299Z" fill="#362FC1"></path>
      <path d="M7.17761 0.959717C7.40141 1.92055 7.857 2.81785 8.49644 3.5881C9.13587 4.36629 9.95114 4.99357 10.8863 5.43825C11.8215 5.88293 12.8446 6.12912 13.8916 6.16088C14.9387 6.19265 15.9778 6.00207 16.9369 5.61297C16.4813 4.26305 15.5861 3.08783 14.3632 2.24611C13.1483 1.41233 11.6776 0.959717 10.1669 0.959717H7.17761Z" fill="#362FC1"></path>
      <path d="M8.99205 11.521H8.91212C8.58441 11.5051 8.2567 11.4256 7.96096 11.2907C7.66523 11.1557 7.40147 10.9572 7.19365 10.7189C7.16967 10.6951 7.16168 10.6713 7.1457 10.6396C7.1377 10.6078 7.1377 10.5839 7.1377 10.5522C7.1377 10.4966 7.17767 10.441 7.22563 10.4013C7.27359 10.3616 7.33753 10.3457 7.40147 10.3537C7.46542 10.3537 7.52135 10.3934 7.56132 10.4331C7.72917 10.6237 7.93699 10.7745 8.16879 10.8857C8.40058 10.9969 8.65636 11.0604 8.92012 11.0683C9.19987 11.0683 9.47961 11.0127 9.73539 10.9016C9.99116 10.7904 10.223 10.6316 10.3988 10.4251C10.4228 10.4013 10.4468 10.3854 10.4707 10.3695C10.4947 10.3537 10.5267 10.3457 10.5587 10.3457C10.5906 10.3457 10.6226 10.3457 10.6546 10.3537C10.6865 10.3616 10.7105 10.3775 10.7345 10.3934C10.7585 10.4093 10.7825 10.4331 10.7985 10.4648C10.8144 10.4887 10.8224 10.5204 10.8224 10.5522C10.8224 10.5839 10.8224 10.6078 10.8144 10.6396C10.8064 10.6713 10.7905 10.6951 10.7745 10.7189C10.5507 10.9651 10.2789 11.1636 9.96719 11.3065C9.65547 11.4495 9.31977 11.521 8.97608 11.5289" fill="#362FC1"></path>
      <path d="M6.826 7.86812C6.84997 7.72519 6.82598 7.58229 6.76204 7.45523C6.6981 7.32818 6.59418 7.22495 6.4583 7.15348C6.33042 7.08202 6.17857 7.05026 6.02671 7.0582C5.87484 7.06614 5.73096 7.12173 5.61906 7.20907C5.49917 7.29642 5.41924 7.41553 5.37128 7.55052C5.33132 7.68551 5.33132 7.82841 5.37128 7.9634C5.41924 8.0984 5.50717 8.21755 5.62706 8.3049C5.74695 8.39225 5.89082 8.43989 6.04268 8.44783C6.22652 8.46371 6.41834 8.41607 6.56222 8.3049C6.70609 8.19373 6.80201 8.03492 6.818 7.86022L6.826 7.86812Z" fill="#362FC1"></path>
      <path d="M6.63406 7.70144C6.63406 7.70144 6.59411 7.70143 6.57812 7.68554C6.56214 7.6776 6.54614 7.66173 6.53814 7.64585C6.46621 7.54262 6.37829 7.46321 6.26639 7.39174C6.16248 7.32821 6.04259 7.28059 5.9147 7.26471C5.77882 7.24883 5.63496 7.26469 5.50708 7.29646C5.37919 7.33616 5.2513 7.39968 5.15539 7.48703C5.13141 7.51085 5.09943 7.51877 5.06745 7.51877C5.03548 7.51877 5.00351 7.51085 4.98752 7.48703C4.96354 7.4632 4.95557 7.4394 4.95557 7.40764C4.95557 7.37587 4.97153 7.35202 4.98752 7.3282C5.11541 7.21703 5.26727 7.12969 5.43512 7.08204C5.60297 7.0344 5.77883 7.01852 5.94668 7.0344C6.10654 7.05822 6.2584 7.11382 6.39428 7.20117C6.53016 7.28852 6.64207 7.39172 6.72999 7.51877C6.73798 7.53465 6.74597 7.55054 6.74597 7.57436C6.74597 7.59024 6.74598 7.61407 6.72999 7.62995C6.722 7.64583 6.706 7.66171 6.69001 7.66965C6.67403 7.67759 6.65006 7.68554 6.62608 7.68554" fill="#362FC1"></path>
      <path d="M10.8944 7.86812C10.8704 7.72519 10.8944 7.58229 10.9583 7.45523C11.0223 7.32818 11.1262 7.22495 11.262 7.15348C11.3899 7.08202 11.5418 7.05026 11.6937 7.0582C11.8455 7.06614 11.9894 7.12173 12.1013 7.20907C12.2212 7.29642 12.3011 7.41553 12.3491 7.55052C12.3891 7.68551 12.3891 7.82841 12.3491 7.9634C12.3011 8.0984 12.2132 8.21755 12.0933 8.3049C11.9734 8.39225 11.8295 8.43989 11.6777 8.44783C11.4938 8.46371 11.302 8.41607 11.1581 8.3049C11.0143 8.19373 10.9184 8.03492 10.8944 7.86022V7.86812Z" fill="#362FC1"></path>
      <path d="M11.0781 7.70139C11.0781 7.70139 11.0382 7.70137 11.0142 7.68549C10.9982 7.67755 10.9822 7.66168 10.9743 7.64579C10.9663 7.62991 10.9583 7.60608 10.9583 7.5902C10.9583 7.56638 10.9583 7.55049 10.9743 7.53461C11.0622 7.40756 11.1741 7.29642 11.3099 7.21701C11.4458 7.1376 11.5977 7.082 11.7575 7.05024C11.9334 7.02642 12.1092 7.05024 12.2691 7.09788C12.437 7.14553 12.5888 7.23287 12.7167 7.34404C12.7407 7.36786 12.7487 7.39167 12.7487 7.42343C12.7487 7.45519 12.7407 7.47904 12.7167 7.50287C12.6927 7.52669 12.6687 7.53461 12.6368 7.53461C12.6048 7.53461 12.5728 7.52669 12.5489 7.50287C12.4449 7.41552 12.3251 7.352 12.1972 7.3123C12.0613 7.27259 11.9254 7.25668 11.7895 7.2805C11.6616 7.30433 11.5417 7.34406 11.4378 7.40758C11.3339 7.47111 11.238 7.55846 11.1661 7.66169C11.1581 7.67757 11.1421 7.69344 11.1261 7.70139C11.1101 7.70933 11.0862 7.71723 11.0702 7.71723L11.0781 7.70139Z" fill="#362FC1"></path>
    </svg>